<mxfile host="Electron" agent="Mozilla/5.0 (Windows NT 10.0; Win64; x64) AppleWebKit/537.36 (KHTML, like Gecko) draw.io/24.7.17 Chrome/128.0.6613.36 Electron/32.0.1 Safari/537.36" version="24.7.17">
  <diagram id="C5RBs43oDa-KdzZeNtuy" name="Page-1">
    <mxGraphModel dx="1925" dy="988" grid="1" gridSize="10" guides="1" tooltips="1" connect="1" arrows="1" fold="1" page="1" pageScale="1" pageWidth="827" pageHeight="1169" math="0" shadow="0">
      <root>
        <mxCell id="WIyWlLk6GJQsqaUBKTNV-0" />
        <mxCell id="WIyWlLk6GJQsqaUBKTNV-1" parent="WIyWlLk6GJQsqaUBKTNV-0" />
        <mxCell id="Z_Wytrpw-sbvqHLQ9N5J-4" style="edgeStyle=orthogonalEdgeStyle;rounded=0;orthogonalLoop=1;jettySize=auto;html=1;entryX=0.5;entryY=0;entryDx=0;entryDy=0;" parent="WIyWlLk6GJQsqaUBKTNV-1" source="Z_Wytrpw-sbvqHLQ9N5J-0" target="Z_Wytrpw-sbvqHLQ9N5J-1" edge="1">
          <mxGeometry relative="1" as="geometry" />
        </mxCell>
        <mxCell id="Z_Wytrpw-sbvqHLQ9N5J-0" value="Start" style="strokeWidth=2;html=1;shape=mxgraph.flowchart.terminator;whiteSpace=wrap;" parent="WIyWlLk6GJQsqaUBKTNV-1" vertex="1">
          <mxGeometry x="-755" y="20" width="100" height="60" as="geometry" />
        </mxCell>
        <mxCell id="Z_Wytrpw-sbvqHLQ9N5J-1" value="Declare Variables:&lt;div&gt;&amp;nbsp;&lt;span style=&quot;background-color: initial;&quot;&gt;Number of Hours&lt;/span&gt;&lt;br&gt;&lt;/div&gt;&lt;div&gt;Wholesale Cost of Materials&lt;/div&gt;&lt;div&gt;Total Labor Cost&lt;/div&gt;&lt;div&gt;Total Material Cost&lt;/div&gt;&lt;div&gt;Total Job Cost&lt;/div&gt;" style="rounded=0;whiteSpace=wrap;html=1;" parent="WIyWlLk6GJQsqaUBKTNV-1" vertex="1">
          <mxGeometry x="-800" y="150" width="190" height="100" as="geometry" />
        </mxCell>
        <mxCell id="Z_Wytrpw-sbvqHLQ9N5J-6" style="edgeStyle=orthogonalEdgeStyle;rounded=0;orthogonalLoop=1;jettySize=auto;html=1;" parent="WIyWlLk6GJQsqaUBKTNV-1" source="Z_Wytrpw-sbvqHLQ9N5J-2" target="Z_Wytrpw-sbvqHLQ9N5J-3" edge="1">
          <mxGeometry relative="1" as="geometry" />
        </mxCell>
        <mxCell id="Z_Wytrpw-sbvqHLQ9N5J-2" value="Input Projected Hours and Wholesale Cost of Materials" style="shape=parallelogram;perimeter=parallelogramPerimeter;whiteSpace=wrap;html=1;fixedSize=1;" parent="WIyWlLk6GJQsqaUBKTNV-1" vertex="1">
          <mxGeometry x="-590" y="310" width="200" height="100" as="geometry" />
        </mxCell>
        <mxCell id="Z_Wytrpw-sbvqHLQ9N5J-8" style="edgeStyle=orthogonalEdgeStyle;rounded=0;orthogonalLoop=1;jettySize=auto;html=1;entryX=0.5;entryY=0;entryDx=0;entryDy=0;" parent="WIyWlLk6GJQsqaUBKTNV-1" source="Z_Wytrpw-sbvqHLQ9N5J-3" target="Z_Wytrpw-sbvqHLQ9N5J-7" edge="1">
          <mxGeometry relative="1" as="geometry" />
        </mxCell>
        <mxCell id="Z_Wytrpw-sbvqHLQ9N5J-3" value="&lt;div&gt;Calculate Total Labor Cost: Number of Hours * 30&lt;/div&gt;&lt;div&gt;Calculate Total Material Cost: Wholesale Cost of Materials * 1.2&lt;/div&gt;&lt;div&gt;Calculate Total Job Cost: Total Labor Cost + Total Material Cost&lt;/div&gt;" style="rounded=0;whiteSpace=wrap;html=1;" parent="WIyWlLk6GJQsqaUBKTNV-1" vertex="1">
          <mxGeometry x="-637.5" y="480" width="295" height="100" as="geometry" />
        </mxCell>
        <mxCell id="Z_Wytrpw-sbvqHLQ9N5J-5" style="edgeStyle=orthogonalEdgeStyle;rounded=0;orthogonalLoop=1;jettySize=auto;html=1;entryX=0.477;entryY=0.037;entryDx=0;entryDy=0;entryPerimeter=0;" parent="WIyWlLk6GJQsqaUBKTNV-1" source="Z_Wytrpw-sbvqHLQ9N5J-1" target="Z_Wytrpw-sbvqHLQ9N5J-2" edge="1">
          <mxGeometry relative="1" as="geometry" />
        </mxCell>
        <mxCell id="Z_Wytrpw-sbvqHLQ9N5J-7" value="&lt;div&gt;Display Total Labor Cost&lt;/div&gt;&lt;div&gt;Display Total Material Cost&lt;/div&gt;&lt;div&gt;Display Total Job Cost&lt;/div&gt;&lt;div&gt;&lt;br&gt;&lt;/div&gt;" style="shape=parallelogram;perimeter=parallelogramPerimeter;whiteSpace=wrap;html=1;fixedSize=1;" parent="WIyWlLk6GJQsqaUBKTNV-1" vertex="1">
          <mxGeometry x="-330" y="680" width="250" height="80" as="geometry" />
        </mxCell>
        <mxCell id="Z_Wytrpw-sbvqHLQ9N5J-9" value="Stop" style="strokeWidth=2;html=1;shape=mxgraph.flowchart.terminator;whiteSpace=wrap;" parent="WIyWlLk6GJQsqaUBKTNV-1" vertex="1">
          <mxGeometry x="-255" y="880" width="100" height="60" as="geometry" />
        </mxCell>
        <mxCell id="BB8Kl6_o4ctLsvRP7_mH-0" style="edgeStyle=orthogonalEdgeStyle;rounded=0;orthogonalLoop=1;jettySize=auto;html=1;entryX=0.5;entryY=0;entryDx=0;entryDy=0;entryPerimeter=0;" edge="1" parent="WIyWlLk6GJQsqaUBKTNV-1" source="Z_Wytrpw-sbvqHLQ9N5J-7" target="Z_Wytrpw-sbvqHLQ9N5J-9">
          <mxGeometry relative="1" as="geometry" />
        </mxCell>
      </root>
    </mxGraphModel>
  </diagram>
</mxfile>
